<?xml version="1.0" encoding="utf-8"?>
<!-- Generator: Adobe Illustrator 23.0.1, SVG Export Plug-In . SVG Version: 6.00 Build 0)  -->
<svg version="1.1" id="Layer_1" xmlns="http://www.w3.org/2000/svg" xmlns:xlink="http://www.w3.org/1999/xlink" x="0px" y="0px"
	 viewBox="0 0 192 102" style="enable-background:new 0 0 192 102;" xml:space="preserve">
<style type="text/css">
	.st0{fill:#0000DC;}
</style>
<path class="st0" d="M20.4,1h6.4v41h-6.4V1z M18,1h2.2l-4,41H14L18,1z M7.6,1h2.2l4,41h-2.2L7.6,1z M1,1h6.4v41H1V1z"/>
<path class="st0" d="M51,1v31.3c0,2.3,2,3.8,4,3.8c1.8,0,3.8-1.5,3.8-3.8V1h6.4v31.6c0,5.5-5,9.8-10.2,9.8c-5.4,0-10.4-4.3-10.4-9.8
	V1H51z"/>
<path class="st0" d="M106.8,42h-6.4V1h6.4V42z M94,1l6.1,41h-2.2L91.8,1H94z M91.5,42h-6.4V1h6.4V42z"/>
<path class="st0" d="M133.7,39.7V3.3h-5.5V1h17.5v2.3h-5.6v36.4h5.6V42h-17.5v-2.3H133.7z"/>
<path class="st0" d="M3.8,91.2v-1.4h3.1v1.4c0,3.8,3.3,6.8,7,6.8s6.9-2.9,6.9-6.8v-2.4c0-4.9-4-6.1-7.7-7C9.5,81,3.8,78.9,3.8,72v-3
	c0-5.6,4.5-9.7,10.1-9.7S24,63.4,24,69v1.5h-3.2v-1.4c0-3.8-3.3-6.8-6.9-6.8c-3.7,0-7,2.9-7,6.8v2.7c0,4.9,4.1,6.1,7.7,7
	c3.8,0.9,9.5,3.2,9.5,9.8V91c0,5.9-4.5,9.8-10.1,9.8S3.8,97,3.8,91.2z"/>
<path class="st0" d="M45.2,91.2V69c0-5.6,4.5-9.7,10.1-9.7s10.1,4.1,10.1,9.7v1.5h-3.2v-1.4c0-3.8-3.3-6.8-6.9-6.8
	c-3.7,0-7,2.9-7,6.8v22c0,3.8,3.3,6.8,7,6.8c3.6,0,6.9-2.9,6.9-6.8v-1.4h3.2v1.4c0,5.9-4.5,9.8-10.1,9.8S45.2,97,45.2,91.2z"/>
<path class="st0" d="M94.4,98.6v-37h-7.2v-2h17.5v2h-7.2v37h7.2v2H87.2v-2H94.4z"/>
</svg>
